<?xml version="1.0" encoding="UTF-8" standalone="no"?>
<!-- Created with Inkscape (http://www.inkscape.org/) -->

<svg
   version="1.1"
   id="svg1"
   width="880"
   height="880"
   viewBox="0 0 880 880"
   sodipodi:docname="workplace-with-laptop.svg"
   inkscape:version="1.3.2 (091e20e, 2023-11-25, custom)"
   xmlns:inkscape="http://www.inkscape.org/namespaces/inkscape"
   xmlns:sodipodi="http://sodipodi.sourceforge.net/DTD/sodipodi-0.dtd"
   xmlns="http://www.w3.org/2000/svg"
   xmlns:svg="http://www.w3.org/2000/svg">
  <defs
     id="defs1">
    <clipPath
       clipPathUnits="userSpaceOnUse"
       id="clipPath11">
      <path
         d="M 0,660 H 660 V 0 H 0 Z"
         transform="translate(-333.61131,-506.94241)"
         id="path11" />
    </clipPath>
    <clipPath
       clipPathUnits="userSpaceOnUse"
       id="clipPath13">
      <path
         d="M 0,660 H 660 V 0 H 0 Z"
         transform="translate(-385.70121,-370.86621)"
         id="path13" />
    </clipPath>
    <clipPath
       clipPathUnits="userSpaceOnUse"
       id="clipPath15">
      <path
         d="M 0,660 H 660 V 0 H 0 Z"
         transform="translate(-485.62891,-370.86621)"
         id="path15" />
    </clipPath>
    <clipPath
       clipPathUnits="userSpaceOnUse"
       id="clipPath17">
      <path
         d="M 0,660 H 660 V 0 H 0 Z"
         transform="translate(-449.33301,-374.80371)"
         id="path17" />
    </clipPath>
    <clipPath
       clipPathUnits="userSpaceOnUse"
       id="clipPath19">
      <path
         d="M 0,660 H 660 V 0 H 0 Z"
         transform="translate(-428.85251,-374.80371)"
         id="path19" />
    </clipPath>
    <clipPath
       clipPathUnits="userSpaceOnUse"
       id="clipPath21">
      <path
         d="M 0,660 H 660 V 0 H 0 Z"
         transform="translate(-327.25591,-508.00201)"
         id="path21" />
    </clipPath>
    <clipPath
       clipPathUnits="userSpaceOnUse"
       id="clipPath23">
      <path
         d="M 0,660 H 660 V 0 H 0 Z"
         transform="translate(-327.25591,-504.82762)"
         id="path23" />
    </clipPath>
    <clipPath
       clipPathUnits="userSpaceOnUse"
       id="clipPath25">
      <path
         d="M 0,660 H 660 V 0 H 0 Z"
         transform="translate(-315.77691,-438.35061)"
         id="path25" />
    </clipPath>
    <clipPath
       clipPathUnits="userSpaceOnUse"
       id="clipPath27">
      <path
         d="M 0,660 H 660 V 0 H 0 Z"
         transform="translate(-383.67971,-441.73441)"
         id="path27" />
    </clipPath>
    <clipPath
       clipPathUnits="userSpaceOnUse"
       id="clipPath29">
      <path
         d="M 0,660 H 660 V 0 H 0 Z"
         transform="translate(-382.59571,-431.35451)"
         id="path29" />
    </clipPath>
    <clipPath
       clipPathUnits="userSpaceOnUse"
       id="clipPath31">
      <path
         d="M 0,660 H 660 V 0 H 0 Z"
         transform="translate(-393.46971,-420.22171)"
         id="path31" />
    </clipPath>
    <clipPath
       clipPathUnits="userSpaceOnUse"
       id="clipPath33">
      <path
         d="M 0,660 H 660 V 0 H 0 Z"
         transform="translate(-404.99411,-475.88331)"
         id="path33" />
    </clipPath>
    <clipPath
       clipPathUnits="userSpaceOnUse"
       id="clipPath35">
      <path
         d="M 0,660 H 660 V 0 H 0 Z"
         id="path35" />
    </clipPath>
    <clipPath
       clipPathUnits="userSpaceOnUse"
       id="clipPath37">
      <path
         d="M 0,660 H 660 V 0 H 0 Z"
         id="path37" />
    </clipPath>
    <clipPath
       clipPathUnits="userSpaceOnUse"
       id="clipPath39">
      <path
         d="M 0,660 H 660 V 0 H 0 Z"
         id="path39" />
    </clipPath>
    <clipPath
       clipPathUnits="userSpaceOnUse"
       id="clipPath41">
      <path
         d="M 0,660 H 660 V 0 H 0 Z"
         id="path41" />
    </clipPath>
    <clipPath
       clipPathUnits="userSpaceOnUse"
       id="clipPath43">
      <path
         d="M 0,660 H 660 V 0 H 0 Z"
         transform="translate(-136.4937,-515.67772)"
         id="path43" />
    </clipPath>
    <clipPath
       clipPathUnits="userSpaceOnUse"
       id="clipPath45">
      <path
         d="M 0,660 H 660 V 0 H 0 Z"
         transform="translate(-409.65041,-175.28811)"
         id="path45" />
    </clipPath>
    <clipPath
       clipPathUnits="userSpaceOnUse"
       id="clipPath47">
      <path
         d="M 0,660 H 660 V 0 H 0 Z"
         transform="translate(-122.7339,-493.07671)"
         id="path47" />
    </clipPath>
  </defs>
  <sodipodi:namedview
     id="namedview1"
     pagecolor="#ffffff"
     bordercolor="#000000"
     borderopacity="0.25"
     inkscape:showpageshadow="2"
     inkscape:pageopacity="0.0"
     inkscape:pagecheckerboard="0"
     inkscape:deskcolor="#d1d1d1"
     inkscape:zoom="0.67272727"
     inkscape:cx="439.25676"
     inkscape:cy="440"
     inkscape:window-width="1440"
     inkscape:window-height="830"
     inkscape:window-x="-6"
     inkscape:window-y="-6"
     inkscape:window-maximized="1"
     inkscape:current-layer="g1">
    <inkscape:page
       x="0"
       y="0"
       inkscape:label="1"
       id="page1"
       width="880"
       height="880"
       margin="233.71733 13.934667 192.42934 14.5964"
       bleed="0" />
  </sodipodi:namedview>
  <g
     id="g1"
     inkscape:groupmode="layer"
     inkscape:label="1">
    <g
       id="group-MC0">
      <path
         id="path2"
         d="m 583.675,370.866 h 34.603 V 175.288 h -34.603 z"
         style="fill:#2f2825;fill-opacity:1;fill-rule:evenodd;stroke:none"
         transform="matrix(1.3333333,0,0,-1.3333333,0,880)" />
      <path
         id="path3"
         d="M 39.9,370.866 H 74.504 V 175.288 H 39.9 Z"
         style="fill:#2f2825;fill-opacity:1;fill-rule:evenodd;stroke:none"
         transform="matrix(1.3333333,0,0,-1.3333333,0,880)" />
      <path
         id="path4"
         d="M 10.947,370.866 H 649.549 V 355.15 H 10.947 Z"
         style="fill:#54c6c8;fill-opacity:1;fill-rule:evenodd;stroke:none"
         transform="matrix(1.3333333,0,0,-1.3333333,0,880)" />
      <path
         id="path5"
         d="M 200.901,370.866 H 482.508 V 355.15 H 200.901 Z"
         style="fill:#42aeb3;fill-opacity:1;fill-rule:evenodd;stroke:none"
         transform="matrix(1.3333333,0,0,-1.3333333,0,880)" />
      <path
         id="path6"
         d="M 39.9,370.866 H 74.504 V 355.15 H 39.9 Z"
         style="fill:#3fa1a9;fill-opacity:1;fill-rule:evenodd;stroke:none"
         transform="matrix(1.3333333,0,0,-1.3333333,0,880)" />
      <path
         id="path7"
         d="m 558.958,370.866 h 24.717 V 355.15 h -24.717 z m -86.861,0 h 41.666 V 355.15 h -41.666 z m -121.839,0 h 26.503 V 355.15 h -26.503 z m -80.08,0 h 39.751 V 355.15 h -39.751 z m -156.125,0 h 62.22 V 355.15 h -62.22 z m 98.514,0 h 20.741 V 355.15 h -20.741 z m 405.711,0 h 31.271 V 355.15 h -31.271 z"
         style="fill:#6ecfd7;fill-opacity:1;fill-rule:evenodd;stroke:none"
         transform="matrix(1.3333333,0,0,-1.3333333,0,880)" />
      <path
         id="path8"
         d="m 350.258,370.866 h 26.503 V 355.15 h -26.503 z m -80.08,0 h 39.751 V 355.15 h -39.751 z m -57.611,0 h 20.741 V 355.15 H 212.567 Z M 482.508,355.15 h -10.411 v 15.716 h 10.411 z"
         style="fill:#54c6c8;fill-opacity:1;fill-rule:evenodd;stroke:none"
         transform="matrix(1.3333333,0,0,-1.3333333,0,880)" />
      <path
         id="path9"
         d="m 583.675,370.866 h 34.603 V 355.15 h -34.603 z"
         style="fill:#3fa1a9;fill-opacity:1;fill-rule:evenodd;stroke:none"
         transform="matrix(1.3333333,0,0,-1.3333333,0,880)" />
      <path
         id="path10"
         d="m 0,0 h 171.017 c 3.302,0 5.666,-2.7 5.254,-6.003 l -13.983,-112.282 c -0.413,-3.301 -3.449,-6.003 -6.75,-6.003 H -15.48 c -3.302,0 -5.666,2.702 -5.255,6.003 L -6.751,-6.003 C -6.34,-2.7 -3.301,0 0,0"
         style="fill:#d3e3e0;fill-opacity:1;fill-rule:evenodd;stroke:none"
         transform="matrix(1.3333333,0,0,-1.3333333,444.81507,204.0768)"
         clip-path="url(#clipPath11)" />
      <path
         id="path12"
         d="m 0,0 h -182.67 c -8.565,0 -10.593,12.848 -2.13,12.848 H -2.129 C 5.867,12.848 8.547,0 0,0"
         style="fill:#a1bebb;fill-opacity:1;fill-rule:evenodd;stroke:none"
         transform="matrix(1.3333333,0,0,-1.3333333,514.26827,385.51173)"
         clip-path="url(#clipPath13)" />
      <path
         id="path14"
         d="m 0,0 h -116.287 c -8.566,0 -10.595,12.848 -2.132,12.848 H -2.131 C 6.435,12.848 8.463,0 0,0"
         style="fill:#d3e3e0;fill-opacity:1;fill-rule:evenodd;stroke:none"
         transform="matrix(1.3333333,0,0,-1.3333333,647.5052,385.51173)"
         clip-path="url(#clipPath15)" />
      <path
         id="path16"
         d="m 0,0 h -9.338 c -3.315,0 -4.099,4.972 -0.824,4.972 h 9.337 C 2.49,4.972 3.275,0 0,0"
         style="fill:#a1bebb;fill-opacity:1;fill-rule:evenodd;stroke:none"
         transform="matrix(1.3333333,0,0,-1.3333333,599.11067,380.26173)"
         clip-path="url(#clipPath17)" />
      <path
         id="path18"
         d="m 0,0 h -9.339 c -3.313,0 -4.098,4.972 -0.824,4.972 h 9.34 C 2.49,4.972 3.275,0 0,0"
         style="fill:#a1bebb;fill-opacity:1;fill-rule:evenodd;stroke:none"
         transform="matrix(1.3333333,0,0,-1.3333333,571.80333,380.26173)"
         clip-path="url(#clipPath19)" />
      <path
         id="path20"
         d="m 0,0 h 171.016 c 3.302,0 5.666,-2.701 5.256,-6.003 l -13.986,-112.283 c -0.41,-3.301 -3.448,-6.002 -6.749,-6.002 H -15.48 c -3.302,0 -5.667,2.701 -5.255,6.002 L -6.75,-6.003 C -6.339,-2.701 -3.301,0 0,0"
         style="fill:#a1bebb;fill-opacity:1;fill-rule:evenodd;stroke:none"
         transform="matrix(1.3333333,0,0,-1.3333333,436.3412,202.664)"
         clip-path="url(#clipPath21)" />
      <path
         id="path22"
         d="m 0,0 c -1.717,0 -3.39,-1.523 -3.601,-3.221 l -13.982,-112.283 c -0.175,-1.386 0.691,-2.435 2.103,-2.435 h 171.017 c 1.715,0 3.388,1.523 3.6,3.221 L 173.121,-2.435 C 173.294,-1.05 172.43,0 171.016,0 Z"
         style="fill:#323a3b;fill-opacity:1;fill-rule:evenodd;stroke:none"
         transform="matrix(1.3333333,0,0,-1.3333333,436.3412,206.89653)"
         clip-path="url(#clipPath23)" />
      <path
         id="path24"
         d="M 0,0 -2.242,-18.008 H 174.38 L 176.624,0 Z M 5.761,46.256 2.331,18.714 h 176.623 l 3.431,27.542 z"
         style="fill:#3e4749;fill-opacity:1;fill-rule:evenodd;stroke:none"
         transform="matrix(1.3333333,0,0,-1.3333333,421.03587,295.53253)"
         clip-path="url(#clipPath25)" />
      <path
         id="path26"
         d="m 0,0 h 35.503 c 1.983,0 3.44,-1.624 3.233,-3.61 -0.208,-1.986 -2.002,-3.611 -3.987,-3.611 H -0.754 c -1.986,0 -3.44,1.625 -3.234,3.611 C -3.779,-1.624 -1.987,0 0,0"
         style="fill:#d3e3e0;fill-opacity:1;fill-rule:evenodd;stroke:none"
         transform="matrix(1.3333333,0,0,-1.3333333,511.57293,291.0208)"
         clip-path="url(#clipPath27)" />
      <path
         id="path28"
         d="m 0,0 h 35.503 c 1.985,0 3.44,-1.624 3.234,-3.61 v -0.001 c -0.209,-1.985 -2.003,-3.61 -3.988,-3.61 H -0.753 c -1.987,0 -3.44,1.625 -3.234,3.61 V -3.61 C -3.779,-1.624 -1.985,0 0,0"
         style="fill:#d3e3e0;fill-opacity:1;fill-rule:evenodd;stroke:none"
         transform="matrix(1.3333333,0,0,-1.3333333,510.1276,304.86067)"
         clip-path="url(#clipPath29)" />
      <path
         id="path30"
         d="m 0,0 h 11.433 c 1.985,0 3.44,-1.624 3.232,-3.61 v -0.001 c -0.205,-1.985 -2,-3.61 -3.986,-3.61 H -0.753 c -1.987,0 -3.441,1.625 -3.234,3.61 V -3.61 C -3.781,-1.624 -1.986,0 0,0"
         style="fill:#a1bebb;fill-opacity:1;fill-rule:evenodd;stroke:none"
         transform="matrix(1.3333333,0,0,-1.3333333,524.62627,319.7044)"
         clip-path="url(#clipPath31)" />
      <path
         id="path32"
         d="m 0,0 c -3.971,0 -7.56,-3.249 -7.975,-7.22 l -0.266,-2.558 c -0.414,-3.971 2.495,-7.22 6.467,-7.22 3.971,0 7.56,3.249 7.975,7.22 L 6.467,-7.22 C 6.882,-3.249 3.972,0 0,0 m 6.012,-15.173 c 2.276,-1.5 3.626,-4.19 3.308,-7.241 -0.489,-4.676 -4.713,-8.5 -9.386,-8.5 h -6.319 c -4.675,0 -8.1,3.824 -7.613,8.5 0.319,3.051 2.231,5.74 4.818,7.24 1.448,-2.375 4.062,-3.93 7.187,-3.93 3.123,0 6.062,1.555 8.005,3.931"
         style="fill:#a1bebb;fill-opacity:1;fill-rule:evenodd;stroke:none"
         transform="matrix(1.3333333,0,0,-1.3333333,539.99213,245.48893)"
         clip-path="url(#clipPath33)" />
      <path
         id="path34"
         d="m 494.693,370.866 h 34.605 V 175.288 h -34.605 z"
         style="fill:#2f2825;fill-opacity:1;fill-rule:evenodd;stroke:none"
         transform="matrix(1.3333333,0,0,-1.3333333,0,880)"
         clip-path="url(#clipPath35)" />
      <path
         id="path36"
         d="m 494.693,370.866 h 34.605 V 355.15 h -34.605 z"
         style="fill:#3fa1a9;fill-opacity:1;fill-rule:evenodd;stroke:none"
         transform="matrix(1.3333333,0,0,-1.3333333,0,880)"
         clip-path="url(#clipPath37)" />
      <path
         id="path38"
         d="m 133.103,370.866 h 34.603 V 175.288 h -34.603 z"
         style="fill:#2f2825;fill-opacity:1;fill-rule:evenodd;stroke:none"
         transform="matrix(1.3333333,0,0,-1.3333333,0,880)"
         clip-path="url(#clipPath39)" />
      <path
         id="path40"
         d="m 133.103,370.866 h 34.603 V 355.15 h -34.603 z"
         style="fill:#3fa1a9;fill-opacity:1;fill-rule:evenodd;stroke:none"
         transform="matrix(1.3333333,0,0,-1.3333333,0,880)"
         clip-path="url(#clipPath41)" />
      <path
         id="path42"
         d="M 0,0 H 0.001 C 47.387,0 93.952,-38.771 103.478,-86.157 L 150.047,-317.79 H -22.267 L -68.835,-86.157 C -78.361,-38.771 -47.386,0 0,0"
         style="fill:#3fa1a9;fill-opacity:1;fill-rule:evenodd;stroke:none"
         transform="matrix(1.3333333,0,0,-1.3333333,181.9916,192.42973)"
         clip-path="url(#clipPath43)" />
      <path
         id="path44"
         d="M 0,0 C 0.757,3.018 0.838,6.367 0.119,9.888 -2.586,23.093 -15.605,33.899 -28.81,33.899 H -262.915 L -255.971,0 Z"
         style="fill:#3fa1a9;fill-opacity:1;fill-rule:evenodd;stroke:none"
         transform="matrix(1.3333333,0,0,-1.3333333,546.20053,646.28253)"
         clip-path="url(#clipPath45)" />
      <path
         id="path46"
         d="m 0,0 h 0.001 c 47.386,0 93.951,-38.771 103.477,-86.156 l 46.569,-231.633 H -22.267 L -68.835,-86.156 C -78.361,-38.771 -47.386,0 0,0"
         style="fill:#276670;fill-opacity:1;fill-rule:evenodd;stroke:none"
         transform="matrix(1.3333333,0,0,-1.3333333,163.6452,222.5644)"
         clip-path="url(#clipPath47)" />
    </g>
  </g>
</svg>
